<svg width="304" height="60" xmlns="http://www.w3.org/2000/svg"><defs><filter color-interpolation-filters="auto" id="a"><feColorMatrix in="SourceGraphic" values="0 0 0 0 0.000000 0 0 0 0 0.000000 0 0 0 0 0.000000 0 0 0 1.000000 0"/></filter></defs><g transform="translate(-648 -188)" filter="url(#a)" fill="none" fill-rule="evenodd"><g fill="#FFF"><path d="m863.891 190.775-.046.045-.827 7.808.047.046H864.902l.046-.046-.781-7.808-.046-.045zM868.438 199.173l.046-.045 1.332-6.991-.046-.046-.23-.045-.045.045-2.94 6.628.046.046zM867.06 202.169c.552 0 1.057-.454 1.057-1.09 0-.59-.505-1.043-1.057-1.043-.597 0-1.102.454-1.102 1.044 0 .635.505 1.089 1.102 1.089M863.983 201.851c.551 0 1.056-.453 1.056-1.09 0-.59-.505-1.043-1.056-1.043-.598 0-1.102.454-1.102 1.044 0 .636.504 1.09 1.102 1.09M859.528 199.173l1.837-.408.046-.046-2.94-6.628-.045-.045-.23.045-.045.046 1.331 6.991zM859.803 201.08c0 .635.506 1.089 1.103 1.089.55 0 1.057-.454 1.057-1.09 0-.59-.506-1.043-1.057-1.043-.597 0-1.103.454-1.103 1.044M734.192 218.966c-.734 0-2.388-.091-3.123-.227v-9.397h3.583c3.169 0 5.695 1.27 5.695 4.585 0 3.223-2.205 5.039-6.155 5.039m.276-14.845h-9.37l-.045.045s.23 2.225.23 6.084v19.52c0 3.858-.23 6.083-.23 6.083l.046.045h6.154l.046-.045s-.23-2.225-.23-6.083v-5.72l.046-.046c.827.091 2.71.182 3.353.182 6.338 0 11.757-3.813 11.757-10.26 0-6.264-5.465-9.805-11.757-9.805M755.676 222.915l4.547-11.213h.045l4.915 11.213h-9.507Zm8.129-16.206c-.689-1.589-.918-2.542-.918-2.542l-.046-.046h-5.007l-.046.046s-.183.953-.873 2.542l-10.838 25.784c-.92 2.18-1.837 3.36-1.837 3.36v.045h6.338l.046-.045c0-.182.138-.954.918-2.86l1.975-4.858h13.962l2.113 4.858c.688 1.861 1.102 2.86 1.102 2.86l.046.045h6.338v-.045s-.827-1.18-1.837-3.36l-11.436-25.784ZM808.804 204.167l-.047-.046h-5.603l-.046.046s.23 2.224.23 6.083v15.98h-.046l-17.36-22.109h-6.155l-.046.046c.689 1.452 1.057 2.451 1.057 3.132v22.47c0 3.86-.23 6.084-.23 6.084l.046.045h5.603l.046-.045s-.23-2.225-.23-6.083v-16.297h.046l17.453 22.425h5.235l.047-.045s-.23-2.225-.23-6.083v-19.52c0-3.859.23-6.083.23-6.083M825.889 230.95c-1.562 0-2.986-.045-3.813-.272-.504-.136-.597-.318-.597-1.181v-20.2h4.272c6.935 0 11.39 4.63 11.39 10.803 0 6.129-4.455 10.85-11.252 10.85m.367-26.829H815.51l-.046.046s.23 2.224.23 6.083v19.52c0 3.858-.23 6.083-.23 6.083l.046.045h3.307c2.173 0 4.592.272 7.348.272 9.875 0 16.856-6.9 16.856-16.115 0-9.306-6.844-15.934-16.764-15.934M863.983 231.04c-5.971 0-10.61-4.81-10.61-11.075s4.639-11.077 10.61-11.077c6.017 0 10.656 4.812 10.656 11.077 0 6.264-4.64 11.076-10.656 11.076m0-27.374c-9.277 0-16.489 7.082-16.489 16.298 0 9.26 7.212 16.296 16.489 16.296 9.37 0 16.489-7.036 16.489-16.296 0-9.216-7.12-16.298-16.489-16.298M894.895 218.648c-.735 0-2.021 0-2.893-.182v-9.17h3.536c3.444 0 5.282 2.224 5.282 4.767 0 2.406-1.883 4.585-5.925 4.585Zm8.497 6.446c-.781-1.271-1.975-2.27-3.17-2.588v-.045c3.354-.726 6.476-4.585 6.476-8.443 0-5.266-4.087-9.897-10.38-9.897h-10.287l-.046.046s.23 2.224.23 6.083v19.52c0 3.858-.23 6.083-.23 6.083l.046.045h6.154l.046-.045s-.23-2.225-.23-6.083v-6.083c3.078 0 4.272.59 5.374 2.315l2.618 4.176c2.159 3.45 3.077 5.675 3.077 5.675l.046.045h7.349v-.045s-1.838-2.225-3.95-5.675l-3.123-5.084ZM925.07 222.915l4.546-11.213h.046l4.915 11.213h-9.507Zm19.565 9.578L933.2 206.71c-.69-1.589-.919-2.542-.919-2.542l-.046-.046h-5.006l-.046.046s-.184.953-.872 2.542l-10.84 25.784c-.918 2.18-1.837 3.36-1.837 3.36v.045h6.338l.047-.045c0-.182.137-.954.918-2.86l1.975-4.858h13.962l2.112 4.858a88.915 88.915 0 0 0 1.103 2.86l.046.045h6.338v-.045s-.826-1.18-1.837-3.36ZM656.2 231.549v-23.33c0-2.027-.046-3.242-.183-4.098h2.962l12.895 28.689h.046l12.895-28.689h2.962c-.137.856-.182 2.071-.182 4.098v23.33c0 1.981.045 3.242.182 4.098h-2.415c.136-.856.182-2.117.182-4.098v-24.365h-.046l-12.804 28.463h-1.64l-12.895-28.554h-.046v24.456c0 1.981.046 3.242.183 4.098h-2.279c.137-.856.182-2.117.182-4.098M697.984 244.61c.092-.135.684-.856 1.14-1.937l3.462-8.197-8.201-18.916c-.593-1.35-.866-1.936-1.276-2.387v-.044h2.642c-.045.18-.045.315-.045.405 0 .315.137.9.456 1.666l7.336 17.43h.045l7.2-17.43c.364-.9.547-1.666.501-2.071h2.552v.044c-.41.496-.683 1.037-1.276 2.387l-11.665 27.473c-.137.316-.228.72-.228.991 0 .225.046.45.137.586v.045h-2.78v-.045Z"/></g></g></svg>